<svg xmlns="http://www.w3.org/2000/svg" viewBox="0 0 154 154">
    <rect x="0" y="0" width="61" height="61" style="fill:rgb(255,255,255);stroke-width:1;stroke:rgb(0,0,0)" />
    <rect x="61" y="0" width="52" height="52" style="fill:rgb(255,255,255);stroke-width:1;stroke:rgb(0,0,0)" />
    <rect x="113" y="0" width="41" height="41" style="fill:rgb(255,255,255);stroke-width:1;stroke:rgb(0,0,0)" />
    <rect x="113" y="41" width="11" height="11" style="fill:rgb(255,255,255);stroke-width:1;stroke:rgb(0,0,0)" />
    <rect x="124" y="41" width="30" height="30" style="fill:rgb(255,255,255);stroke-width:1;stroke:rgb(0,0,0)" />
    <rect x="61" y="52" width="9" height="9" style="fill:rgb(255,255,255);stroke-width:1;stroke:rgb(0,0,0)" />
    <rect x="70" y="52" width="35" height="35" style="fill:rgb(255,255,255);stroke-width:1;stroke:rgb(0,0,0)" />
    <rect x="105" y="52" width="19" height="19" style="fill:rgb(255,255,255);stroke-width:1;stroke:rgb(0,0,0)" />
    <rect x="0" y="61" width="46" height="46" style="fill:rgb(255,255,255);stroke-width:1;stroke:rgb(0,0,0)" />
    <rect x="46" y="61" width="24" height="24" style="fill:rgb(255,255,255);stroke-width:1;stroke:rgb(0,0,0)" />
    <rect x="105" y="71" width="16" height="16" style="fill:rgb(255,255,255);stroke-width:1;stroke:rgb(0,0,0)" />
    <rect x="121" y="71" width="33" height="33" style="fill:rgb(255,255,255);stroke-width:1;stroke:rgb(0,0,0)" />
    <rect x="46" y="85" width="22" height="22" style="fill:rgb(255,255,255);stroke-width:1;stroke:rgb(0,0,0)" />
    <rect x="68" y="85" width="2" height="2" style="fill:rgb(255,255,255);stroke-width:1;stroke:rgb(0,0,0)" />
    <rect x="68" y="87" width="36" height="36" style="fill:rgb(255,255,255);stroke-width:1;stroke:rgb(0,0,0)" />
    <rect x="104" y="87" width="17" height="17" style="fill:rgb(255,255,255);stroke-width:1;stroke:rgb(0,0,0)" />
    <rect x="104" y="104" width="50" height="50" style="fill:rgb(255,255,255);stroke-width:1;stroke:rgb(0,0,0)" />
    <rect x="0" y="107" width="47" height="47" style="fill:rgb(255,255,255);stroke-width:1;stroke:rgb(0,0,0)" />
    <rect x="47" y="107" width="21" height="21" style="fill:rgb(255,255,255);stroke-width:1;stroke:rgb(0,0,0)" />
    <rect x="68" y="123" width="5" height="5" style="fill:rgb(255,255,255);stroke-width:1;stroke:rgb(0,0,0)" />
    <rect x="73" y="123" width="31" height="31" style="fill:rgb(255,255,255);stroke-width:1;stroke:rgb(0,0,0)" />
    <rect x="47" y="128" width="26" height="26" style="fill:rgb(255,255,255);stroke-width:1;stroke:rgb(0,0,0)" />
</svg>
